<?xml version="1.0" standalone="no"?>
<svg viewBox="0 0 200 200" xmlns="http://www.w3.org/2000/svg">
  <path fill="#30B73F" d="M38.8,-67.2C50,-60.6,58.6,-49.7,68.3,-37.8C77.9,-25.9,88.6,-12.9,91.8,1.8C95,16.6,90.7,33.2,81.2,45.5C71.8,57.8,57.1,65.7,42.7,73.1C28.3,80.6,14.2,87.6,-0.6,88.6C-15.3,89.6,-30.6,84.6,-42.8,75.9C-55,67.2,-64.1,54.7,-70.8,41.4C-77.6,28.2,-82,14.1,-83.4,-0.8C-84.8,-15.7,-83.2,-31.4,-75.7,-43.3C-68.2,-55.3,-54.8,-63.4,-41.1,-68.6C-27.5,-73.8,-13.8,-76,0,-76C13.8,-76,27.5,-73.8,38.8,-67.2Z" transform="translate(100 100)" />
</svg>
